<?xml version="1.0" encoding="UTF-8"?>
<!DOCTYPE svg PUBLIC "-//W3C//DTD SVG 1.1//EN" "http://www.w3.org/Graphics/SVG/1.1/DTD/svg11.dtd">
<svg xmlns="http://www.w3.org/2000/svg" version="1.1" width="1080px" height="1080px" style="shape-rendering:geometricPrecision; text-rendering:geometricPrecision; image-rendering:optimizeQuality; fill-rule:evenodd; clip-rule:evenodd" xmlns:xlink="http://www.w3.org/1999/xlink">
<g><path style="opacity:1" fill="#fefefe" d="M -0.5,-0.5 C 359.5,-0.5 719.5,-0.5 1079.5,-0.5C 1079.5,359.5 1079.5,719.5 1079.5,1079.5C 719.5,1079.5 359.5,1079.5 -0.5,1079.5C -0.5,719.5 -0.5,359.5 -0.5,-0.5 Z"/></g>
<g><path style="opacity:1" fill="#030303" d="M 222.5,245.5 C 271.516,250.837 319.182,262.004 365.5,279C 418.192,297.682 468.859,320.682 517.5,348C 532.167,348.667 546.833,348.667 561.5,348C 640.525,302.824 724.525,270.491 813.5,251C 828.021,247.851 842.687,246.185 857.5,246C 858.126,246.75 858.626,247.584 859,248.5C 859.5,256.493 859.666,264.493 859.5,272.5C 869.506,272.334 879.506,272.5 889.5,273C 890.126,273.75 890.626,274.584 891,275.5C 891.5,283.827 891.666,292.16 891.5,300.5C 901.506,300.334 911.506,300.5 921.5,301C 922.333,301.833 923.167,302.667 924,303.5C 924.5,314.495 924.667,325.495 924.5,336.5C 931.175,336.334 937.842,336.5 944.5,337C 945.416,337.374 946.25,337.874 947,338.5C 947.5,494.833 947.667,651.166 947.5,807.5C 819.507,811.74 691.84,820.574 564.5,834C 546.5,834.667 528.5,834.667 510.5,834C 384.528,820.088 258.195,811.255 131.5,807.5C 131.333,651.5 131.5,495.5 132,339.5C 132.833,338.667 133.667,337.833 134.5,337C 141.158,336.5 147.825,336.334 154.5,336.5C 154.333,325.495 154.5,314.495 155,303.5C 155.833,302.667 156.667,301.833 157.5,301C 167.828,300.5 178.161,300.334 188.5,300.5C 188.334,291.827 188.5,283.16 189,274.5C 189.5,274 190,273.5 190.5,273C 200.161,272.5 209.828,272.334 219.5,272.5C 219.334,264.493 219.5,256.493 220,248.5C 221.045,247.627 221.878,246.627 222.5,245.5 Z"/></g>
<g><path style="opacity:1" fill="#fdfdfd" d="M 511.5,356.5 C 511.833,505.001 511.5,653.334 510.5,801.5C 449.152,768.66 385.152,742.16 318.5,722C 289.639,713.805 260.306,707.972 230.5,704.5C 230.5,555.167 230.5,405.833 230.5,256.5C 279.842,263.335 327.842,275.502 374.5,293C 421.955,310.424 467.621,331.59 511.5,356.5 Z"/></g>
<g><path style="opacity:1" fill="#fcfcfc" d="M 841.5,256.5 C 843.833,256.5 846.167,256.5 848.5,256.5C 848.5,405.833 848.5,555.167 848.5,704.5C 791.665,711.959 736.665,726.459 683.5,748C 643.686,763.741 605.019,781.907 567.5,802.5C 566.167,653.833 566.167,505.167 567.5,356.5C 653.202,307.491 744.536,274.157 841.5,256.5 Z"/></g>
<g><path style="opacity:1" fill="#f9f9f9" d="M 198.5,282.5 C 205.833,282.5 213.167,282.5 220.5,282.5C 220.333,425.5 220.5,568.5 221,711.5C 221.833,712.333 222.667,713.167 223.5,714C 282.418,721.646 339.418,736.646 394.5,759C 409.615,765.058 424.615,771.391 439.5,778C 399.898,766.098 359.898,755.432 319.5,746C 279.6,737.181 239.267,731.681 198.5,729.5C 198.5,580.5 198.5,431.5 198.5,282.5 Z"/></g>
<g><path style="opacity:1" fill="#fdfdfd" d="M 651.5,774.5 C 650.833,774.5 650.5,774.167 650.5,773.5C 715.503,743.444 783.503,723.611 854.5,714C 856.286,713.215 857.786,712.049 859,710.5C 859.5,567.834 859.667,425.167 859.5,282.5C 866.5,282.5 873.5,282.5 880.5,282.5C 880.5,431.5 880.5,580.5 880.5,729.5C 822.172,732.999 764.839,742.499 708.5,758C 689.362,763.034 670.362,768.534 651.5,774.5 Z"/></g>
<g><path style="opacity:1" fill="#f9f9f9" d="M 457.5,795.5 C 456.791,796.404 455.791,796.737 454.5,796.5C 359.042,778.184 262.709,767.85 165.5,765.5C 165.5,613.833 165.5,462.167 165.5,310.5C 173.167,310.5 180.833,310.5 188.5,310.5C 188.333,452.5 188.5,594.5 189,736.5C 189.833,737.333 190.667,738.167 191.5,739C 232.603,740.954 273.27,746.287 313.5,755C 362.151,766.161 410.151,779.661 457.5,795.5 Z"/></g>
<g><path style="opacity:1" fill="#f9f9f9" d="M 623.5,796.5 C 622.508,796.672 621.842,796.338 621.5,795.5C 709.229,764.769 799.063,744.769 891,735.5C 891.5,593.834 891.667,452.167 891.5,310.5C 899.167,310.5 906.833,310.5 914.5,310.5C 914.5,462.167 914.5,613.833 914.5,765.5C 816.589,767.713 719.589,778.046 623.5,796.5 Z"/></g>
<g><path style="opacity:1" fill="#060606" d="M 254.5,323.5 C 315.89,335.352 374.89,354.519 431.5,381C 451.85,390.258 471.683,400.424 491,411.5C 491.989,416.84 489.822,419.34 484.5,419C 411.34,379.332 334.173,350.499 253,332.5C 250.788,329.021 251.288,326.021 254.5,323.5 Z"/></g>
<g><path style="opacity:1" fill="#070707" d="M 819.5,323.5 C 827.49,323.086 829.49,326.253 825.5,333C 744.188,350.159 667.188,378.826 594.5,419C 588.531,418.902 586.698,416.068 589,410.5C 661.643,370.123 738.477,341.123 819.5,323.5 Z"/></g>
<g><path style="opacity:1" fill="#d9d9d9" d="M 511.5,356.5 C 512.833,505.001 512.833,653.667 511.5,802.5C 510.893,802.376 510.56,802.043 510.5,801.5C 511.5,653.334 511.833,505.001 511.5,356.5 Z"/></g>
<g><path style="opacity:1" fill="#b8b8b8" d="M 555.5,806.5 C 555.5,657.5 555.5,508.5 555.5,359.5C 544.833,359.5 534.167,359.5 523.5,359.5C 523.5,508.5 523.5,657.5 523.5,806.5C 522.5,657.334 522.167,508.001 522.5,358.5C 533.833,358.5 545.167,358.5 556.5,358.5C 556.833,508.001 556.5,657.334 555.5,806.5 Z"/></g>
<g><path style="opacity:1" fill="#fefffe" d="M 555.5,806.5 C 544.833,806.5 534.167,806.5 523.5,806.5C 523.5,657.5 523.5,508.5 523.5,359.5C 534.167,359.5 544.833,359.5 555.5,359.5C 555.5,508.5 555.5,657.5 555.5,806.5 Z"/></g>
<g><path style="opacity:1" fill="#070707" d="M 254.5,369.5 C 298.377,377.304 341.044,389.47 382.5,406C 418.8,420.213 454.133,436.546 488.5,455C 492.072,457.626 492.405,460.626 489.5,464C 487.5,464.667 485.5,464.667 483.5,464C 411.289,424.596 334.956,396.263 254.5,379C 250.581,375.84 250.581,372.673 254.5,369.5 Z"/></g>
<g><path style="opacity:1" fill="#080808" d="M 816.5,369.5 C 819.518,369.335 822.518,369.502 825.5,370C 828.229,373.015 828.063,375.848 825,378.5C 744.294,395.735 667.794,424.235 595.5,464C 590.16,464.989 587.66,462.822 588,457.5C 659.935,417.024 736.101,387.691 816.5,369.5 Z"/></g>
<g><path style="opacity:1" fill="#060606" d="M 253.5,415.5 C 272.105,417.9 290.439,421.734 308.5,427C 371.46,445.315 431.793,469.982 489.5,501C 492.999,507.669 490.999,510.669 483.5,510C 411.431,470.199 335.098,441.866 254.5,425C 250.956,422.127 250.623,418.96 253.5,415.5 Z"/></g>
<g><path style="opacity:1" fill="#070707" d="M 816.5,415.5 C 819.518,415.335 822.518,415.502 825.5,416C 828.539,419.805 827.872,422.805 823.5,425C 743.292,442.069 667.292,470.402 595.5,510C 590.16,510.989 587.66,508.822 588,503.5C 659.778,462.632 735.945,433.299 816.5,415.5 Z"/></g>
<g><path style="opacity:1" fill="#060606" d="M 254.5,460.5 C 315.89,472.352 374.89,491.519 431.5,518C 451.357,527.179 470.857,537.012 490,547.5C 492.569,553.256 490.736,556.089 484.5,556C 411.34,516.332 334.173,487.499 253,469.5C 250.788,466.021 251.288,463.021 254.5,460.5 Z"/></g>
<g><path style="opacity:1" fill="#070707" d="M 819.5,460.5 C 827.021,460.39 829.021,463.557 825.5,470C 744.188,487.159 667.188,515.826 594.5,556C 588.531,555.902 586.698,553.068 589,547.5C 661.643,507.123 738.477,478.123 819.5,460.5 Z"/></g>
<g><path style="opacity:1" fill="#070707" d="M 254.5,506.5 C 315.89,518.352 374.89,537.519 431.5,564C 451.881,573.273 471.714,583.44 491,594.5C 492.033,599.799 489.866,602.299 484.5,602C 411.721,562.073 334.721,533.406 253.5,516C 250.69,512.432 251.023,509.266 254.5,506.5 Z"/></g>
<g><path style="opacity:1" fill="#080808" d="M 816.5,506.5 C 819.518,506.335 822.518,506.502 825.5,507C 828.539,510.805 827.872,513.805 823.5,516C 743.292,533.069 667.292,561.402 595.5,601C 590.16,601.989 587.66,599.822 588,594.5C 659.935,554.024 736.101,524.691 816.5,506.5 Z"/></g>
<g><path style="opacity:1" fill="#060606" d="M 253.5,552.5 C 272.105,554.9 290.439,558.734 308.5,564C 372.466,582.239 433.299,607.739 491,640.5C 491.667,646.161 489.167,648.328 483.5,647C 411.431,607.199 335.098,578.866 254.5,562C 250.956,559.127 250.623,555.96 253.5,552.5 Z"/></g>
<g><path style="opacity:1" fill="#070707" d="M 820.5,551.5 C 825.813,551.644 827.979,554.31 827,559.5C 745.962,578.183 668.795,607.35 595.5,647C 590.16,647.989 587.66,645.822 588,640.5C 661.056,599.095 738.556,569.428 820.5,551.5 Z"/></g>
<g><path style="opacity:1" fill="#070707" d="M 819.5,597.5 C 827.021,597.39 829.021,600.557 825.5,607C 744.188,624.159 667.188,652.826 594.5,693C 588.531,692.902 586.698,690.068 589,684.5C 661.643,644.123 738.477,615.123 819.5,597.5 Z"/></g>
<g><path style="opacity:1" fill="#070707" d="M 254.5,597.5 C 337.897,614.617 416.73,643.95 491,685.5C 491.881,691.286 489.381,693.786 483.5,693C 411.067,653.121 334.4,624.455 253.5,607C 250.753,603.553 251.087,600.386 254.5,597.5 Z"/></g>
<g><path style="opacity:1" fill="#070707" d="M 254.5,643.5 C 315.89,655.352 374.89,674.519 431.5,701C 451.881,710.273 471.714,720.44 491,731.5C 492.033,736.799 489.866,739.299 484.5,739C 411.721,699.073 334.721,670.406 253.5,653C 250.69,649.432 251.023,646.266 254.5,643.5 Z"/></g>
<g><path style="opacity:1" fill="#070707" d="M 819.5,643.5 C 825.496,642.333 827.996,644.666 827,650.5C 826.5,651.667 825.667,652.5 824.5,653C 744.027,670.268 667.693,698.601 595.5,738C 589.498,738.993 587.332,736.493 589,730.5C 661.643,690.123 738.477,661.123 819.5,643.5 Z"/></g>
<g><path style="opacity:1" fill="#aaaaaa" d="M 650.5,773.5 C 650.5,774.167 650.833,774.5 651.5,774.5C 647.791,776.569 643.791,777.735 639.5,778C 643.188,776.487 646.855,774.987 650.5,773.5 Z"/></g>
<g><path style="opacity:1" fill="#b7b7b7" d="M 621.5,795.5 C 621.842,796.338 622.508,796.672 623.5,796.5C 619.708,798.034 615.708,798.868 611.5,799C 614.744,797.53 618.077,796.363 621.5,795.5 Z"/></g>
<g><path style="opacity:1" fill="#a6a6a6" d="M 457.5,795.5 C 460.907,796.358 464.24,797.525 467.5,799C 462.946,798.941 458.613,798.108 454.5,796.5C 455.791,796.737 456.791,796.404 457.5,795.5 Z"/></g>
</svg>
