<?xml version="1.0" standalone="no"?>
<!DOCTYPE svg PUBLIC "-//W3C//DTD SVG 20010904//EN"
 "http://www.w3.org/TR/2001/REC-SVG-20010904/DTD/svg10.dtd">
<svg version="1.0" xmlns="http://www.w3.org/2000/svg"
 width="2397.000000pt" height="1820.000000pt" viewBox="0 0 2397.000000 1820.000000"
 preserveAspectRatio="xMidYMid meet">

<g transform="translate(0.000000,1820.000000) scale(0.100000,-0.100000)"
fill="#000000" stroke="none">
<path d="M18640 18184 c-990 -54 -2106 -256 -3395 -614 -461 -128 -666 -194
-934 -299 -97 -38 -212 -79 -256 -91 -179 -48 -837 -328 -1210 -515 -258 -129
-561 -322 -873 -554 -274 -204 -385 -280 -464 -316 -121 -55 -169 -42 -249 66
-28 39 -64 76 -79 84 -15 8 -60 42 -101 76 -102 85 -184 137 -346 218 -346
173 -905 373 -1358 485 -613 152 -1198 219 -1910 220 -417 1 -467 -3 -965 -69
-257 -35 -259 -35 -685 -141 -489 -121 -644 -156 -895 -198 -538 -91 -1050
-136 -1540 -136 -307 0 -433 9 -630 45 -74 14 -183 29 -242 35 -108 10 -194
33 -277 74 -85 42 -96 42 -148 -8 l-47 -44 42 -123 c50 -150 65 -213 57 -250
-9 -40 -38 -45 -98 -16 -70 34 -92 38 -151 25 -96 -20 -144 -55 -165 -118 -7
-21 -23 -42 -41 -52 -31 -18 -50 -52 -50 -92 0 -30 -30 -56 -63 -56 -35 0 -93
-52 -107 -96 -7 -19 -10 -54 -8 -77 7 -61 -4 -81 -69 -125 -124 -84 -164 -211
-92 -288 25 -27 18 -44 -19 -44 -65 0 -111 -72 -119 -186 -4 -52 -12 -81 -24
-96 -20 -22 -26 -43 -54 -170 -16 -75 -26 -92 -68 -113 -21 -10 -30 -30 -42
-87 -9 -44 -53 -50 -203 -28 -250 36 -442 34 -544 -7 -61 -24 -140 -140 -182
-265 -38 -114 -42 -196 -17 -378 47 -335 94 -626 141 -865 56 -287 108 -618
145 -920 36 -289 90 -645 124 -817 32 -159 48 -261 86 -578 15 -118 40 -287
55 -375 51 -283 75 -449 144 -985 25 -190 63 -464 85 -610 22 -146 47 -336 56
-423 17 -169 27 -233 49 -312 21 -72 50 -233 95 -530 22 -143 63 -397 90 -565
62 -375 89 -572 141 -1035 25 -223 50 -396 65 -455 13 -52 49 -230 80 -395 31
-165 67 -351 80 -413 40 -185 81 -433 144 -877 33 -231 76 -499 96 -595 51
-251 76 -410 145 -900 181 -1289 228 -1547 334 -1844 24 -66 49 -139 55 -162
14 -54 98 -139 169 -171 87 -40 167 -40 487 1 154 19 498 60 765 91 762 87
1609 192 1935 241 1006 149 2038 300 2520 368 1045 149 1098 157 1205 176 58
10 377 55 710 99 726 97 836 114 954 146 107 29 238 50 395 65 106 10 116 9
155 -10 22 -11 70 -45 106 -76 86 -74 177 -118 313 -153 160 -42 338 -61 607
-68 880 -21 1967 188 2356 455 70 47 110 89 191 197 33 44 82 104 108 132 l47
53 836 0 c2048 1 4168 22 5387 55 308 8 864 22 1235 30 673 15 933 27 1033 45
70 14 192 73 207 101 18 32 9 108 -50 429 -53 293 -94 557 -105 680 -34 391
-176 1181 -215 1205 -6 3 -10 15 -10 26 0 25 38 25 88 0 68 -34 77 -34 116 0
46 39 66 106 66 213 0 65 -4 88 -21 115 -16 27 -27 84 -49 255 -16 122 -40
289 -54 371 -14 83 -62 420 -106 750 -79 587 -138 962 -280 1770 -39 220 -79
469 -91 553 -11 85 -24 164 -29 177 -18 47 -145 861 -210 1343 -22 167 -47
332 -55 367 -22 91 -68 411 -115 784 -39 313 -53 394 -83 476 -17 45 -28 115
-57 355 -11 90 -43 304 -71 475 -130 805 -185 1159 -254 1643 -76 526 -108
728 -191 1185 -61 336 -81 474 -99 667 -17 191 -38 322 -99 637 -25 126 -68
359 -96 518 -73 416 -88 496 -120 625 -63 252 -102 296 -298 331 -1097 199
-1556 250 -2292 254 -256 1 -494 1 -530 -1z m890 -135 c616 -29 1221 -105
1586 -200 149 -38 452 -156 458 -178 14 -44 125 -657 192 -1051 41 -245 106
-620 144 -835 85 -480 80 -451 196 -1225 134 -896 208 -1372 265 -1695 58
-328 190 -1183 249 -1605 55 -396 101 -695 160 -1055 28 -165 55 -361 60 -436
5 -75 23 -206 39 -290 29 -151 60 -363 141 -949 49 -354 67 -471 170 -1095 97
-588 162 -1004 235 -1495 67 -453 133 -862 179 -1105 46 -243 49 -260 41 -295
-16 -72 -85 -78 -366 -31 -241 40 -381 56 -689 81 -140 11 -366 32 -503 45
-306 31 -785 48 -1132 40 -1127 -26 -2003 -104 -2464 -220 -75 -18 -212 -48
-306 -65 -188 -35 -282 -56 -319 -70 -13 -5 -98 -25 -188 -45 -749 -164 -1897
-522 -2742 -854 -599 -235 -881 -369 -1196 -566 -199 -125 -224 -133 -248 -82
-7 15 -26 139 -43 275 -35 296 -42 347 -79 567 -16 94 -57 346 -90 560 -68
447 -86 552 -170 985 -80 416 -201 1151 -554 3355 -412 2571 -558 3448 -616
3708 -16 73 -41 220 -55 327 -14 107 -66 461 -115 785 -49 325 -114 754 -144
955 -31 201 -73 484 -95 630 -65 431 -71 575 -25 645 69 106 669 536 1154 827
416 249 643 364 965 486 116 44 270 108 344 142 345 160 1661 543 2521 734
470 104 1319 240 1795 287 279 27 775 31 1245 8z m-11445 -1249 c329 -18 612
-52 864 -105 165 -35 718 -187 895 -246 502 -168 981 -420 1263 -667 171 -150
171 -149 264 -841 66 -499 109 -793 170 -1161 27 -168 70 -442 95 -610 25
-168 54 -341 64 -385 26 -112 73 -393 290 -1745 244 -1515 703 -4343 734
-4525 13 -77 49 -275 80 -440 30 -165 96 -552 146 -860 50 -308 157 -956 237
-1440 161 -975 173 -1077 123 -1083 -15 -2 -68 18 -130 49 -494 242 -1593 439
-2745 490 -330 15 -674 7 -1125 -26 -749 -54 -953 -74 -1675 -165 -1230 -155
-1591 -186 -2064 -177 -515 10 -1048 83 -1227 168 -73 34 -131 94 -138 141 -2
18 -18 148 -35 288 -40 330 -152 1142 -191 1380 -16 102 -43 295 -59 430 -36
293 -61 467 -101 695 -35 202 -62 381 -175 1155 -47 322 -99 662 -115 755 -16
94 -48 312 -70 485 -56 427 -131 943 -190 1301 -27 163 -68 414 -90 557 -22
144 -49 308 -60 364 -11 57 -52 312 -90 568 -39 256 -113 726 -165 1045 -82
507 -317 1979 -374 2350 -11 72 -45 299 -75 505 -30 206 -82 552 -116 769 -65
425 -77 528 -61 551 9 12 36 10 203 -18 409 -68 643 -86 1083 -86 743 0 1426
91 2290 308 121 30 285 68 365 85 572 118 1308 172 1905 141z m-6001 -793 c51
-29 74 -61 91 -128 8 -30 42 -248 75 -484 69 -490 285 -1857 425 -2695 162
-968 310 -1912 530 -3385 53 -352 123 -818 156 -1035 33 -217 82 -548 109
-735 27 -187 54 -362 60 -389 6 -27 38 -236 71 -465 81 -567 161 -1093 214
-1411 24 -146 62 -402 84 -570 22 -168 63 -478 91 -690 98 -750 142 -954 227
-1042 41 -43 148 -71 478 -128 330 -56 620 -80 975 -80 410 0 663 21 1415 115
1175 148 1825 200 2826 226 643 18 1161 -2 1529 -57 91 -13 271 -40 400 -59
447 -65 841 -164 1175 -297 231 -91 338 -190 263 -242 -31 -22 -111 -20 -156
2 -20 11 -78 39 -127 65 -222 112 -465 183 -1135 331 -362 80 -452 96 -527 99
-62 1 -83 -6 -83 -28 0 -19 46 -33 225 -66 747 -137 1486 -364 1605 -491 24
-26 25 -34 4 -42 -31 -12 -140 16 -394 100 -329 110 -400 127 -400 93 0 -15
158 -84 360 -157 284 -103 310 -115 310 -148 0 -7 -41 -49 -92 -94 l-92 -80
-25 17 c-162 108 -264 153 -364 161 -56 4 -71 2 -87 -13 -42 -38 -11 -70 77
-78 159 -16 297 -118 278 -207 -7 -33 -72 -96 -121 -116 -71 -30 -122 -13
-284 96 -195 131 -405 225 -487 218 -75 -6 -28 -60 67 -78 131 -24 410 -216
410 -282 0 -16 -20 -44 -59 -82 l-59 -58 -228 75 c-429 142 -669 187 -1264
239 -219 19 -997 16 -1280 -6 -586 -44 -935 -92 -1670 -230 -484 -91 -643
-114 -900 -130 -233 -16 -245 -18 -369 -61 -41 -15 -161 -44 -267 -65 -129
-25 -205 -45 -229 -60 -32 -20 -43 -21 -118 -15 -73 6 -89 4 -131 -15 -63 -28
-174 -52 -451 -95 -126 -19 -273 -44 -325 -56 -267 -57 -330 -68 -472 -83
-253 -27 -363 -45 -586 -97 -449 -104 -567 -102 -651 13 -45 60 -73 161 -126
440 -74 386 -106 515 -128 501 -19 -12 22 -413 88 -858 19 -126 37 -245 39
-263 8 -52 -21 -40 -49 21 -36 79 -72 225 -94 387 -11 80 -32 228 -46 330 -34
243 -197 1267 -285 1785 -38 226 -99 595 -134 820 -36 226 -88 550 -115 720
-28 171 -64 409 -81 530 -17 121 -45 286 -61 367 -47 235 -204 1220 -359 2243
-50 330 -120 782 -156 1004 -35 222 -93 593 -129 825 -35 231 -80 511 -99 621
-20 110 -56 333 -81 495 -25 162 -63 390 -85 505 -45 238 -106 627 -179 1145
-68 476 -67 466 -26 343 22 -64 41 -147 51 -225 8 -68 28 -175 44 -238 16 -63
43 -196 59 -296 16 -99 50 -288 75 -420 25 -131 52 -282 61 -334 17 -104 32
-150 48 -150 15 0 3 127 -32 336 -16 98 -44 280 -61 404 -16 124 -39 268 -50
320 -11 52 -40 226 -65 387 -25 160 -81 509 -125 775 -87 517 -103 654 -79
646 26 -8 56 -130 104 -422 30 -181 51 -266 79 -326 l20 -45 4 43 c5 63 -116
1025 -132 1051 -8 12 11 34 23 26 22 -13 31 -55 81 -367 28 -169 100 -606 160
-971 61 -364 135 -833 166 -1042 30 -209 70 -445 89 -525 52 -219 49 -205 140
-737 128 -743 137 -783 170 -783 16 0 25 24 26 71 2 43 -50 371 -201 1284 -66
396 -140 855 -165 1020 -49 318 -117 725 -165 990 -61 334 -170 992 -170 1028
0 25 4 37 12 35 19 -7 37 -73 65 -233 38 -224 81 -385 103 -385 12 0 12 24 0
175 -16 187 -58 503 -91 694 -35 204 -35 264 -1 269 18 3 26 -5 42 -41 23 -51
18 -21 215 -1227 196 -1194 208 -1255 244 -1248 20 4 19 15 -12 213 -14 88
-44 306 -67 485 -23 179 -89 651 -146 1050 -139 960 -146 1012 -142 1073 3 48
5 52 28 52 47 0 54 -30 140 -585 77 -502 116 -736 190 -1140 32 -179 75 -419
95 -535 67 -397 104 -514 92 -294 -8 151 -26 287 -92 689 -76 462 -263 1757
-277 1912 -9 98 -9 134 0 154 18 38 44 27 59 -26 18 -59 68 -350 147 -855 97
-608 135 -839 156 -945 11 -52 29 -171 40 -265 11 -93 33 -249 50 -345 17 -96
89 -526 160 -955 199 -1194 210 -1255 238 -1255 5 0 15 7 23 16 25 30 -5 230
-191 1284 -227 1283 -244 1411 -205 1480 9 16 14 56 15 113 0 146 -20 312
-119 987 -17 113 -42 295 -56 405 -15 110 -39 292 -56 404 -32 228 -36 312
-15 330 9 7 17 8 20 2 14 -22 41 -192 126 -786 100 -709 280 -1866 370 -2385
95 -550 271 -1649 345 -2160 93 -639 136 -860 167 -860 24 0 -11 313 -93 830
-27 173 -70 446 -94 605 -24 160 -80 506 -124 770 -138 826 -413 2627 -501
3275 -28 206 -60 430 -70 497 -25 151 -26 226 -4 247 20 20 21 20 68 -7z
m-114 -1482 c0 -37 -4 -65 -10 -65 -6 0 -10 28 -10 65 0 37 4 65 10 65 6 0 10
-28 10 -65z m-1120 -361 c5 -49 10 -186 10 -304 0 -279 7 -342 96 -919 41
-267 126 -844 189 -1281 175 -1221 188 -1305 439 -2835 58 -352 130 -800 160
-995 75 -481 155 -973 350 -2150 91 -547 231 -1422 311 -1945 81 -522 176
-1110 211 -1305 150 -823 244 -1424 244 -1564 0 -50 -20 -96 -41 -96 -18 0
-48 64 -53 114 -3 28 -10 118 -16 199 -20 292 -92 740 -126 792 -12 19 -14 38
-9 87 4 35 2 101 -4 147 -12 91 -131 718 -213 1116 -74 360 -73 359 -118 715
-79 641 -111 854 -250 1710 -157 964 -186 1153 -240 1550 -17 124 -62 401
-100 615 -38 215 -81 458 -95 540 -14 83 -44 242 -65 355 -86 446 -111 591
-150 868 -45 317 -106 706 -151 967 -84 487 -111 654 -143 910 -84 650 -101
767 -181 1210 -66 367 -65 364 -116 815 -49 442 -51 504 -21 629 29 118 49
168 63 154 5 -5 14 -50 19 -99z m1207 -271 c-2 -21 -4 -4 -4 37 0 41 2 58 4
38 2 -21 2 -55 0 -75z m-1027 -610 c0 -67 -3 -93 -10 -83 -16 24 -10 180 6
180 2 0 4 -44 4 -97z m20360 -8722 c32 -8 28 -9 -35 -10 -239 -5 -401 -45
-263 -65 24 -3 180 -11 348 -16 168 -6 368 -17 445 -25 331 -35 1301 -246
1449 -316 47 -22 80 -55 70 -71 -10 -16 -55 -8 -228 41 -96 28 -246 66 -333
85 -222 50 -617 118 -661 114 l-37 -3 60 -24 c33 -13 202 -59 375 -102 476
-120 618 -165 668 -211 62 -59 4 -51 -433 55 -543 132 -878 194 -1115 204
-106 5 -127 3 -138 -10 -20 -24 4 -32 158 -57 448 -72 661 -114 975 -197 202
-52 454 -135 510 -166 71 -40 86 -119 26 -132 -37 -8 -76 -1 -231 40 -257 69
-517 115 -1270 225 -267 39 -584 87 -705 106 -356 57 -503 57 -542 -2 -14 -22
-14 -27 -1 -40 24 -24 78 -32 293 -44 369 -20 553 -42 1370 -166 94 -14 242
-41 330 -59 88 -18 225 -45 305 -60 285 -52 397 -90 424 -143 25 -48 30 -116
11 -135 -32 -33 -91 -21 -399 79 -299 97 -551 165 -976 263 -399 92 -527 114
-664 115 -90 1 -130 -3 -133 -11 -8 -22 110 -54 431 -118 467 -92 599 -126
1201 -310 394 -121 575 -189 575 -217 0 -14 -82 -9 -188 12 -109 21 -187 26
-196 11 -12 -18 39 -45 169 -91 75 -27 147 -56 161 -65 27 -18 24 -35 -7 -35
-19 0 -279 65 -694 175 -268 70 -388 95 -470 96 -59 1 -70 -2 -94 -25 -35 -34
-58 -33 -296 4 -104 17 -233 33 -285 36 -117 6 -144 -4 -148 -57 -3 -30 2 -41
27 -62 43 -36 92 -50 401 -112 656 -134 1412 -363 1581 -481 47 -32 51 -67 8
-72 -14 -2 -149 24 -300 57 -542 119 -908 179 -1604 260 -843 100 -946 106
-1650 105 -599 0 -777 -6 -1550 -55 -337 -21 -481 -38 -815 -95 -387 -67 -733
-139 -1220 -256 -326 -78 -410 -91 -410 -65 0 20 62 52 186 96 105 37 157 66
151 84 -8 23 -72 8 -186 -42 -62 -28 -137 -57 -165 -65 -28 -8 -176 -76 -329
-151 -152 -74 -316 -153 -365 -173 -106 -47 -149 -73 -235 -146 -109 -93 -198
-122 -217 -71 -10 26 -22 30 -112 40 -70 8 -85 22 -64 63 19 37 83 90 216 179
136 91 217 156 202 161 -28 9 -359 -175 -466 -260 -55 -43 -48 -42 -118 -27
-84 18 -158 54 -158 78 0 45 136 135 407 271 259 129 485 222 866 354 117 41
265 97 327 124 135 59 176 72 453 147 255 68 321 93 325 123 11 72 -224 20
-760 -167 -156 -54 -299 -102 -318 -106 -19 -4 -93 -33 -165 -65 -71 -31 -143
-60 -160 -64 -76 -19 -608 -295 -852 -442 -143 -87 -202 -114 -249 -114 -37 0
-42 11 -23 54 17 38 168 150 376 280 50 32 99 66 109 77 16 18 16 19 -5 19
-29 0 -64 -19 -179 -97 -198 -133 -469 -239 -496 -194 -22 35 429 288 920 514
159 73 316 150 347 170 54 35 77 61 64 73 -22 22 -902 -391 -1132 -532 -276
-168 -292 -175 -335 -129 -43 46 -6 85 220 230 196 125 706 377 975 482 376
147 1644 567 2061 683 364 102 1237 321 1429 359 174 35 769 131 995 161 214
28 596 66 905 89 224 17 353 25 735 45 117 6 504 -3 540 -13z m850 -12 c762
-72 1106 -132 1174 -207 26 -29 29 -66 8 -92 l-18 -23 -105 18 c-57 9 -201 41
-319 71 -118 30 -314 73 -435 95 -254 46 -643 124 -697 139 -21 6 -40 16 -44
22 -8 13 133 6 436 -23z m1325 -1401 c10 -25 20 -94 26 -168 10 -144 12 -152
41 -240 21 -65 20 -148 -2 -135 -24 15 -105 366 -116 508 -7 73 -6 77 13 77
15 0 26 -12 38 -42z m-1152 -138 c229 -59 484 -134 622 -184 55 -19 110 -36
123 -36 29 0 62 -34 62 -65 0 -34 -18 -32 -79 9 -31 21 -73 39 -108 45 -152
29 -542 145 -723 215 -52 20 -114 40 -137 43 -24 3 -43 10 -43 14 0 21 103 6
283 -41z m-6798 -580 c-9 -14 -101 -60 -121 -60 -28 0 -10 24 36 48 46 23 96
30 85 12z m8065 -126 c0 -34 -4 -53 -10 -49 -18 11 -12 105 7 105 2 0 3 -25 3
-56z m-10165 -80 c16 -107 20 -269 6 -244 -25 45 -48 371 -25 347 2 -2 11 -48
19 -103z m-317 -17 c19 -23 42 -127 48 -224 6 -80 5 -93 -8 -93 -30 0 -78 152
-78 243 0 76 14 103 38 74z m723 -173 c12 -60 9 -94 -10 -94 -15 0 -31 59 -31
115 0 92 20 82 41 -21z m-865 -61 c3 -17 3 -46 -1 -65 -7 -30 -10 -24 -26 57
-10 50 -19 92 -19 95 0 17 41 -61 46 -87z"/>
<path d="M2584 9109 c-16 -26 45 -597 131 -1224 24 -176 53 -403 65 -505 11
-102 34 -270 50 -375 16 -104 54 -379 85 -610 30 -231 78 -580 105 -776 27
-196 63 -468 80 -605 17 -137 44 -348 60 -469 16 -121 64 -499 105 -840 41
-341 90 -736 110 -878 19 -141 51 -405 70 -585 37 -334 48 -386 91 -424 34
-30 132 -47 334 -58 245 -14 912 -14 1045 0 151 16 203 39 123 54 -18 3 -285
10 -593 16 -683 11 -785 22 -847 88 -31 32 -37 61 -77 342 -27 187 -48 359
-126 1030 -14 124 -73 576 -130 1005 -193 1448 -246 1869 -244 1935 1 24 1 23
10 -5 5 -16 32 -163 59 -325 28 -162 76 -434 106 -605 92 -518 144 -821 173
-1020 16 -104 33 -208 39 -230 6 -22 25 -137 42 -255 51 -355 80 -473 112
-454 17 11 3 175 -26 299 -37 164 -80 421 -146 890 -33 231 -69 463 -80 515
-11 52 -36 199 -55 325 -19 127 -53 331 -75 455 -23 124 -77 434 -121 690 -91
531 -132 741 -161 820 -33 93 -48 153 -48 196 0 79 -143 1131 -196 1438 -22
128 -47 181 -70 145z m416 -2751 c-6 -26 -8 -20 -8 32 0 52 2 58 8 33 4 -18 4
-48 0 -65z"/>
<path d="M3351 6736 c-8 -9 -16 -49 -18 -89 -4 -60 1 -95 31 -208 27 -106 86
-390 86 -417 0 -2 7 2 16 9 15 12 16 30 10 139 -11 224 -61 519 -95 561 -15
19 -18 20 -30 5z"/>
<path d="M3532 5358 c-14 -14 -16 -54 -3 -63 22 -13 86 -380 201 -1150 44
-297 107 -704 140 -905 33 -201 67 -405 75 -455 15 -94 34 -131 77 -152 55
-27 591 -121 912 -160 169 -20 730 -24 864 -5 94 13 130 28 113 45 -8 8 -54
10 -149 7 -481 -17 -1129 49 -1392 142 -30 11 -87 24 -127 28 -78 10 -123 28
-165 68 -45 41 -59 99 -128 512 -22 135 -56 328 -75 430 -18 102 -57 354 -85
560 -87 636 -154 999 -199 1075 -19 33 -40 42 -59 23z"/>
<path d="M2700 5045 c0 -14 18 -151 40 -303 46 -325 113 -855 169 -1347 59
-512 71 -643 77 -807 3 -106 15 -213 44 -385 22 -131 51 -326 65 -433 74 -565
94 -676 126 -702 39 -33 97 -41 249 -35 201 8 542 68 905 158 170 43 201 58
224 111 24 56 51 68 232 108 219 48 400 95 581 150 381 118 959 269 1183 310
65 12 136 28 157 37 64 25 98 89 66 121 -24 24 -137 11 -433 -47 -399 -79
-511 -105 -970 -220 -538 -136 -861 -193 -1204 -211 -152 -9 -256 -9 -382 -1
-287 18 -334 32 -357 108 -14 48 -55 300 -127 788 -50 337 -113 725 -175 1075
-11 63 -26 160 -33 214 -9 74 -16 102 -29 110 -13 8 -21 7 -32 -4 -18 -19 -11
-73 73 -580 61 -369 94 -591 176 -1180 53 -385 82 -546 101 -565 35 -35 240
-54 570 -55 315 0 458 11 758 61 131 22 241 38 243 36 6 -7 -109 -47 -221 -77
-155 -41 -745 -157 -896 -176 -74 -9 -218 -16 -355 -17 l-230 -2 -7 75 c-15
156 -41 348 -104 765 -36 237 -85 585 -109 775 -47 376 -61 471 -165 1145 -38
248 -81 545 -96 660 -28 227 -54 329 -91 353 -22 14 -23 13 -23 -13z m2470
-3465 c0 -5 -22 -10 -50 -10 -27 0 -50 5 -50 10 0 6 23 10 50 10 28 0 50 -4
50 -10z m-720 -279 c-8 -5 -40 -14 -70 -21 -30 -7 -91 -25 -135 -40 -103 -36
-193 -51 -573 -96 -280 -33 -315 -35 -353 -23 -41 14 -70 41 -57 54 17 17 105
25 358 35 295 10 390 20 485 49 56 17 183 37 295 44 25 2 50 4 55 5 6 1 3 -2
-5 -7z"/>
<path d="M3764 3264 c-23 -90 70 -633 127 -747 47 -94 66 -102 286 -128 98
-11 306 -38 463 -59 412 -56 490 -63 677 -58 167 5 223 15 223 44 0 21 -30 25
-225 34 -372 17 -981 103 -1121 158 -27 11 -76 23 -107 27 -48 6 -61 12 -78
36 -11 16 -29 29 -39 29 -33 0 -49 51 -105 335 -57 290 -73 355 -86 355 -5 0
-12 -12 -15 -26z"/>
<path d="M3634 2904 c-15 -61 18 -408 51 -520 41 -140 131 -185 435 -213 319
-30 1344 -52 1442 -32 60 13 92 36 69 50 -21 13 -179 21 -664 31 -253 6 -491
15 -530 20 -40 5 -153 19 -252 30 -275 32 -334 49 -372 107 -10 15 -47 144
-83 287 -36 143 -70 261 -77 264 -7 2 -15 -9 -19 -24z"/>
<path d="M7385 2864 c-163 -18 -418 -57 -552 -85 -76 -16 -103 -26 -103 -37 0
-20 60 -15 465 43 382 54 495 74 495 86 0 13 -153 9 -305 -7z"/>
<path d="M4144 2854 c3 -9 6 -17 6 -20 0 -13 108 -55 166 -65 38 -6 135 -26
216 -44 422 -96 531 -109 948 -109 648 0 1160 66 1160 150 0 18 -3 18 -130
-11 -496 -111 -1691 -64 -2186 85 -113 34 -190 40 -180 14z"/>
<path d="M3580 2329 c-8 -14 -10 -42 -6 -77 17 -145 93 -213 304 -275 75 -21
89 -22 587 -21 467 0 726 11 758 31 32 20 -63 27 -467 34 -581 12 -736 21
-799 49 -32 14 -78 23 -139 27 -65 4 -96 11 -107 22 -9 9 -31 58 -49 108 -18
50 -41 98 -52 108 -17 16 -19 15 -30 -6z"/>
<path d="M15232 2515 c-88 -34 -307 -148 -364 -190 -56 -41 -65 -71 -18 -62
43 9 318 147 400 202 38 25 70 53 70 61 0 19 -14 17 -88 -11z"/>
</g>
</svg>
